<?xml version="1.0" encoding="utf-8"?>
<!-- Generator: Adobe Illustrator 18.0.0, SVG Export Plug-In . SVG Version: 6.00 Build 0)  -->
<!DOCTYPE svg PUBLIC "-//W3C//DTD SVG 1.1//EN" "http://www.w3.org/Graphics/SVG/1.1/DTD/svg11.dtd">
<svg version="1.1" id="Isolation_Mode" xmlns="http://www.w3.org/2000/svg" xmlns:xlink="http://www.w3.org/1999/xlink" x="0px"
	 y="0px" viewBox="261.6 375.9 72 90" enable-background="new 261.6 375.9 72 90" xml:space="preserve">
<g>
	<g>
		<path fill="#FCDB04" d="M312.7,385.9c7,0,13.9,0,20.9,0c0,24.1,0,48.2,0,72.3c-6.9,0-13.9,0-20.9,0
			C312.7,434.2,312.7,410,312.7,385.9z M326.2,393.4c1.5,0,3,0,4.5,0c0-1.3,0-2.5,0-3.8c0-0.6-0.2-0.9-0.8-0.9c-4.6,0-14,0-14.3,0.1
			c0,22.2,0,44.3,0,66.5c1.3,0,10.9,0,14.4,0c0.2,0,0.6-0.2,0.7-0.3c0.1-1.4,0-2.8,0-4.2c-1.6,0-3,0-4.5,0c0-1,0-2,0-3
			c1.5,0,3,0,4.4,0c0-2,0-4,0-6.1c-1.5,0-3,0-4.5,0c0-1,0-2,0-3c1.5,0,3,0,4.4,0c0-2,0-4,0-6.1c-1.5,0-3,0-4.4,0c0-1,0-2,0-3
			c1.5,0,3,0,4.4,0c0-2,0-4,0-6.1c-1.5,0-2.9,0-4.4,0c0-1,0-2,0-3c1.5,0,3,0,4.4,0c0-2,0-4,0-6.1c-1.5,0-3,0-4.4,0c0-1,0-2,0-3
			c1.5,0,3,0,4.4,0c0-2,0-4,0-6.1c-1.5,0-3,0-4.4,0c0-1,0-2,0-3c1.5,0,3,0,4.4,0c0-2,0-4,0-6.1c-1.5,0-3,0-4.5,0
			C326.2,395.4,326.2,394.4,326.2,393.4z"/>
	</g>
	<g>
		<path fill="#808080" d="M291.1,400.1v-3.2h-2.2v3.2l-3.3,5.4l0,0v0.1l0,0v52.5h8.5v-52.5l0,0v-0.1l0,0L291.1,400.1z M291.8,456
			h-3.9v-3.5h3.9V456z M291.8,449.6h-3.9v-43.4l2-3.7l2,3.7V449.6z"/>
		<path fill="#808080" d="M278.1,392.5H277c-0.9,0-1.3-0.6-1.4-1.1c-0.9-2.9-3.9-5.1-6.8-5.1c-0.2,0-0.3,0-0.6,0
			c-3.5,0.3-6.4,3.3-6.6,6.9l0,0v47.8l0,0c0,1.2,0,2.3,0,3.5c0,4.1,2.9,7.7,7.3,7.7c0.1,0,0.2,0,0.3,0h14.6v-2.5h-14.2h-0.5
			c-1.1,0-2-0.4-2.7-0.7c-1.8-0.9-2.6-2.8-2.4-5c0.2-2.4,1.6-3.9,4-4.1c2.4-0.2,4.6,1.4,5.2,3.9c0.1,0.3,0.2,0.7,0.2,1.3h2.2l0,0
			l0,0v-50.2h2.2h32.1h0.2v-2.3H278.1z M273.6,393.3v44.5v1.7l0,0l-0.6-0.5c-2.6-2-6.4-2-9,0l-0.2,0.1v-45.9c0-2.1,2-4.8,5.2-4.8
			s4.5,3,4.5,4.4C273.6,393,273.6,393.1,273.6,393.3L273.6,393.3z"/>
		<rect x="295.6" y="449.7" fill="#808080" width="14.6" height="2.5"/>
	</g>
</g>
</svg>
