<?xml version="1.0" encoding="utf-8"?>
<!-- Generator: Adobe Illustrator 18.0.0, SVG Export Plug-In . SVG Version: 6.00 Build 0)  -->
<!DOCTYPE svg PUBLIC "-//W3C//DTD SVG 1.1//EN" "http://www.w3.org/Graphics/SVG/1.1/DTD/svg11.dtd">
<svg version="1.1" id="Isolation_Mode" xmlns="http://www.w3.org/2000/svg" xmlns:xlink="http://www.w3.org/1999/xlink" x="0px"
	 y="0px" viewBox="0 332.4 595.3 509.5" enable-background="new 0 332.4 595.3 509.5" xml:space="preserve">
<g>
	<path fill="#FCDB04" d="M132.7,529.9c-0.6-25-0.6-50,0-75v-1.2c0-8.3-3.6-14.9-10.1-18.5c-4.2-2.4-10.1-5.4-16.1-5.4
		c-16.1-0.6-31.5-0.6-47.6-1.2h-7.1c-7.1,0-13.1,0.6-18.5,1.2c-15.5,1.8-23.2,10.7-23.2,26.2c0,6.5,0,12.5,0,19
		c0,18.5,0,37.5,0,56.6c0,7.7,2.4,14.9,7.7,20.8c0.6,0.6,1.2,1.2,1.8,1.8c1.2,1.2,1.8,1.8,2.4,3c0,1.2,1.8,3.6,1.8,5.4
		c0,10.7,0,22,0,32.7v23.8c0,10.1,0,20.2,0,31c0,9.5,4.2,13.7,13.7,13.7c13.1,0,26.2,0,39.3,0h26.8c11.3,0,14.9-3.6,14.9-14.9v-20.2
		c0-20.8,0-41.7,0-62.5c0-5.4,1.2-8.3,4.2-10.7C129.8,548.3,132.7,540,132.7,529.9z M104.8,616.8c0,10.1,0,20.2,0,30.4
		c0,2.4-0.6,2.4-0.6,2.4s-0.6,0.6-2.4,0.6l0,0c-10.1,0-20.8,0-31,0c-10.7,0-20.8,0-31.5,0c-1.8,0-1.8,0-1.8,0s0-0.6,0-2.4
		c0-10.7,0-22,0-32.7v-12.6v-10.7c0-10.7,0-21.4,0-32.7c0-2.4-1.2-4.8-2.4-7.1c-0.6-0.6-0.6-1.8-1.2-2.4c-0.6-0.6-0.6-1.2-1.2-1.8
		c-7.1-6.5-9.5-13.1-9.5-23.2c0.6-15.5,0.6-32.1,0.6-48.2c0-7.1,0-13.7,0-20.8c0-7.1,1.8-9.5,8.3-11.3c3-0.6,5.4-1.2,8.3-1.2h10.1
		c7.1,0,14.9,0,22,0c10.7,0,19,0,27.4,0.6c5.4,0,11.3,2.4,14.9,4.2c1.2,0.6,3,3.6,3,6c0.6,30.4,0.6,56.6,0,81.6
		c0,2.4-1.8,6.5-4.8,8.9c-8.3,7.7-9.5,16.7-8.9,24.4C104.8,584.7,104.8,600.7,104.8,616.8z M103.6,660.9L103.6,660.9L103.6,660.9
		L103.6,660.9z"/>
	<path fill="#FCDB04" d="M70.8,426.4L70.8,426.4c26.2,0,47.6-20.8,47.6-47c0-12.5-4.8-24.4-13.7-33.3c-8.9-8.9-20.8-13.7-33.9-13.7
		c-25.6,0-46.4,20.8-46.4,46.4C23.8,405,45.2,426.4,70.8,426.4z M71.4,343.1v3c17.9,0,32.7,14.9,32.7,33.3s-14.9,33.3-33.3,33.3
		c-17.9,0-32.7-14.9-32.7-33.3s14.3-33.3,33.3-33.3V343.1L71.4,343.1z M70.8,423.4L70.8,423.4L70.8,423.4L70.8,423.4z"/>
</g>
<g>
	<path fill="#929497" d="M406,708.5c-0.6-25-0.6-50,0-75v-1.2c0-8.3-3.6-14.9-10.1-18.5c-4.8-2.4-10.1-5.4-16.1-5.4
		c-16.1-0.6-31.5-0.6-47.6-1.2H325c-7.1,0-13.1,0.6-18.5,1.2c-15.5,1.8-23.2,10.7-23.2,26.2c0,6.5,0,12.5,0,19c0,18.5,0,37.5,0,56.6
		c0,7.7,2.4,14.9,7.7,20.8c0.6,0.6,1.2,1.2,1.8,1.8c1.2,1.2,1.8,1.8,2.4,3c1.2,1.8,2.4,4.2,2.4,6c0,10.7,0,22,0,32.7v23.8
		c0,10.1,0,20.2,0,31c0,9.5,4.2,13.7,13.7,13.7c14.9,0,29.2,0,44.1,0h22c11.3,0,14.9-3.6,14.9-14.9v-20.8c0-20.2,0-41.7,0-62.5
		c0-5.4,1.2-8.3,4.2-10.7C403,726.9,406.6,718.6,406,708.5z M378.6,795.4c0,10.1,0,20.2,0,30.4c0,2.4-0.6,2.4-0.6,2.4
		s-0.6,0.6-2.4,0.6l0,0c-10.1,0-20.2,0-31,0c-10.7,0-20.8,0-31.5,0c-1.8,0-1.8,0-1.8,0s0-0.6,0-2.4c0-10.7,0-22,0-32.7v-12.5v-10.7
		c0-10.7,0-21.4,0-32.7c0-2.4-1.2-4.8-2.4-7.1c-0.6-0.6-0.6-1.8-1.2-2.4c-0.6-0.6-0.6-1.2-1.2-1.8c-7.1-6.5-9.5-13.1-9.5-23.2
		c0.6-15.5,0.6-32.1,0.6-48.8c0-7.1,0-13.7,0-20.8s1.8-9.5,8.3-11.3c3-0.6,5.4-1.2,8.3-1.2h10.1c7.1,0,14.9,0,22,0
		c10.7,0,19,0,27.4,0.6c5.4,0,11.3,2.4,14.9,4.2c1.2,0.6,3,3.6,3,6c0.6,30.4,0.6,56.6,0,81.6c0,2.4-1.8,6.5-4.8,8.9
		c-8.3,7.7-9.5,16.7-8.9,24.4C378.6,762.6,378.6,779.3,378.6,795.4z M377.4,839.4L377.4,839.4L377.4,839.4L377.4,839.4z"/>
	<path fill="#929497" d="M216.7,797.2c0-7.1,0-14.9,0-22c0-18.5,0-37.5,0-56c0-8.3-0.6-16.7-8.9-23.8c-3.6-3-5.4-7.1-4.8-13.1
		c0.6-22.6,0.6-46.4,0-75c0-6.5,0.6-8.9,9.5-11.3c3.6-1.2,7.1-1.2,9.5-1.2c9.5,0,19,0,29.2,0h37.5v-14.3h-3c-7.1,0-14.3,0-21.4,0
		s-14.3,0-21.4,0c-11.9,0-22,0-31,0.6c-14.3,0.6-23.2,10.7-22.6,26.8c0.6,25.6,0.6,48.8,0,70.8c-0.6,11.3,3,20.2,11.3,29.2
		c1.2,1.2,2.4,4.2,2.4,6.5c0,20.8,0,41.7,0,61.9v24.4c0,9.5,4.2,13.7,13.7,13.7h71.4v-13.7h-71.4L216.7,797.2L216.7,797.2z"/>
	<path fill="#929497" d="M589.9,653.7c-0.6-17.3-0.6-35.1,0-51.8c0-7.1,0-14.9,0-22c0-13.7-5.4-20.8-18.5-24.4
		c-4.2-1.2-7.7-1.8-11.9-1.8c-11.3,0-22.6,0-33.9,0h-29.2c-0.6,0-1.8,0-2.4,0l-3.6,0.6v13.1h39.3c8.3,0,16.7,0,25,0
		c4.8,0,10.1,0.6,14.3,1.8c4.8,1.2,6.5,3.6,6.5,9.5c0,7.1,0,14.3,0,20.8c0,16.1,0,32.7,0.6,49.4c0.6,10.7-2.4,18.5-9.5,24.4
		c-4.2,3.6-4.8,7.7-4.2,11.3c0,22,0,44.1,0,66.1v23.8H491v14.3h41.1h28.6c12.5,0,16.1-4.2,16.1-16.1v-16.1c0-22.6,0-45.8,0-68.5
		c0-3.6,0.6-6,3-7.7C586.9,673.4,590.5,664.4,589.9,653.7z"/>
	<path fill="#929497" d="M497.7,687c0-28,0-56.6,0-84.5c0-7.7-3.6-13.7-10.1-17.3c-6-3-11.3-4.8-15.5-4.8
		c-17.3-0.6-35.1-0.6-52.4-0.6h-16.1c-1.2,0-1.8,0.6-2.4,0.6l-2.4,0.6v12.5h39.9c8.9,0,17.9,0,26.8,0c4.2,0,8.3,0.6,12.5,1.8
		c5.4,1.8,7.1,3.6,7.1,9.5c0,7.1,0,14.9,0,22c0,16.7,0,34.5,0,51.8c0,7.7-1.8,13.1-7.1,18.5c-0.6,0.6-0.6,0.6-1.2,1.2
		c-0.6,0.6-0.6,0.6-1.2,1.2c-4.2,3-4.8,7.1-4.8,10.7c0,22.6,0,44.6,0,67.3v23.2h-72.6v13.7h70.2c5.4,0,9.5-0.6,12.5-3.6
		s3.6-7.1,3.6-12.5c0-7.7,0-14.9,0-22.6c0-19,0-38.7,0-57.7c0-6,1.2-10.1,5.4-14.3C493.5,700.1,497.7,694.8,497.7,687z M468.5,811.5
		L468.5,811.5L468.5,811.5L468.5,811.5z"/>
	<path fill="#929497" d="M528,550.7L528,550.7c12.5,0,24.4-4.8,33.3-13.7s13.7-20.8,13.7-33.3c0-25.6-20.8-47-47-47
		c-25.6,0-47,20.8-47,47C481.6,529.3,502.4,550.7,528,550.7z M528.6,468v3c18.5,0,32.7,14.3,33.3,32.7c0,8.9-3,17.3-9.5,23.2
		c-6.5,6.5-14.9,10.1-23.8,10.1c-17.9,0-32.7-14.9-33.3-32.7c0-8.9,3.6-17.3,9.5-23.8c6-6,14.3-9.5,23.2-9.5L528.6,468L528.6,468z
		 M528.6,547.8L528.6,547.8L528.6,547.8L528.6,547.8z"/>
	<path fill="#929497" d="M344.1,604.3L344.1,604.3c26.2,0,47.6-20.8,47.6-47c0-12.5-4.8-24.4-13.7-33.3
		c-8.9-8.9-20.8-13.7-33.9-13.7c-25.6,0-46.4,20.8-46.4,46.4C297.6,582.9,318.5,604.3,344.1,604.3z M344.7,521.6v3
		c17.9,0,32.7,14.9,32.7,33.3c0,18.4-14.9,33.3-33.3,33.3c-17.9,0-32.7-14.9-32.7-33.3c0-18.4,14.3-33.3,33.3-33.3V521.6
		L344.7,521.6z M344.7,601.3L344.7,601.3L344.7,601.3L344.7,601.3z"/>
	<path fill="#929497" d="M435.7,576.9L435.7,576.9c26.2,0,47.6-20.8,47.6-45.8c0-26.2-20.2-47.6-46.4-47.6h-0.6
		c-25.6,0-46.4,20.8-47,46.4c0,12.5,4.8,24.4,13.1,33.3C411.9,571.6,423.2,576.9,435.7,576.9z M403.6,529.3
		c0-17.3,15.5-32.1,32.7-32.1h0.6c17.9,0.6,32.7,15.5,32.1,33.3c0,17.9-14.9,32.7-32.7,32.7h-0.6
		C417.9,562.6,403.6,547.8,403.6,529.3z"/>
	<path fill="#929497" d="M249.4,576.9h0.6c26.2,0,46.4-19.6,47-45.2c0.6-26.8-19.6-47.6-45.8-48.2H250c-26.2,0-46.4,20.2-47,46.4
		c0,12.5,4.8,24.4,13.1,33.3C225.6,571.6,236.9,576.9,249.4,576.9z M250,496.6v-3l0,0V496.6c8.9,0,17.3,3.6,23.8,10.1
		c6.5,6.5,9.5,14.9,9.5,23.2c0,17.9-15.5,32.7-33.3,32.7c-18.5,0-33.3-14.9-33.3-33.3C217.3,512,232.2,496.6,250,496.6z"/>
</g>
</svg>
