<svg xmlns="http://www.w3.org/2000/svg" xmlns:xlink="http://www.w3.org/1999/xlink" version="1.1" enable-background="new 0 0 100 100" xml:space="preserve" width="106" height="106"><rect id="backgroundrect" width="100%" height="100%" x="0" y="0" fill="none" stroke="none" class=""/>


<g class="currentLayer"><title>Layer 1</title><g class="selected" id="svg_15">
	<path fill="#FCDB04" d="M101.9375,54.8 c-0.2,0 -0.4,0 -0.7000000000000005,0 c-16.2,0 -32.3,0 -48.5,0 c-0.4,0 -0.8,0 -0.9,-0.1 c-0.1,-0.1 -0.1,-0.5 -0.1,-0.9 V4 h-2.5 v53.3 h53.3 v-2.5 L101.9375,54.8 z" id="svg_23"/>
	<polygon fill="#FCDB04" points="96.5374984741211,6.699999809265137 100.0374984741211,6.699999809265137 100.0374984741211,51.20000076293945 102.63749694824219,51.20000076293945 102.63749694824219,4 93.9375,4 93.9375,51.20000076293945 96.5374984741211,51.20000076293945 " id="svg_31"/>
	<polygon fill="#FCDB04" points="84.3375015258789,18.899999618530273 87.8375015258789,18.899999618530273 87.8375015258789,51.20000076293945 90.3375015258789,51.20000076293945 90.3375015258789,16.199999809265137 81.73750305175781,16.199999809265137 81.73750305175781,51.20000076293945 84.3375015258789,51.20000076293945 " id="svg_35"/>
	<path fill="#FCDB04" d="M72.2375,26.6 c0.2,0 3.4,0 3.4,0 s0,10.9 0,16 l0,8.7 h2.6 V24.4 h-8.7 v26.9 h2.7 V26.6 z" id="svg_37"/>
	<path fill="#FCDB04" d="M59.9375,35 c0.2,0 3.4,0 3.4,0 s0,2.5 0,7.6 l0,8.7 h2.6 V32.8 h-8.7 v18.4 h2.7 V35 z" id="svg_39"/>
</g><g class="selected" id="svg_51">
	<path fill="#929497" d="M86.3375,60.9 l-16,0 c-7.9,0 -15.9,0 -23.8,0 c-0.4,0 -0.6000000000000005,0 -0.7000000000000005,-0.1 c-0.1,-0.1 -0.1,-0.30000000000000027 -0.1,-0.7000000000000005 c0,-9.4 0,-18.8 0,-28.3 l0,-11.5 l-0.30000000000000027,0 c-0.30000000000000027,0 -0.5,0 -0.8,0 c-13.3,0 -29.9,7.8 -37.1,25.3 C0.7374999999999998,62.1 5.4375,81.1 19.2375,92.7 c7.2,6.1 16.5,9.4 26.2,9.4 c7.7,0 15.2,-2.1 21.6,-6.2 c7.5,-4.7 13,-11.2 16.3,-19.4 c2,-5 3,-10 2.9,-15.3 L86.3375,60.9 zM43.9375,64 c1.2,1.3 2.2,2.8 3.2,4.2 c0.4,0.6000000000000005 0.8,1.2 1.2,1.7000000000000002 c5.7,7.7 11.4,15.5 17.1,23.2 c0.1,0.1 0.2,0.30000000000000027 0.30000000000000027,0.4 c-5.7,3.9 -12.9,6 -20.4,6 c-7.9,0 -15.4,-2.3 -21.7,-6.8 C8.7375,82.3 3.1374999999999997,63.4 9.9375,46.7 C16.4375,30.7 31.6375,23.3 43.0375,23 l0,7.8 c0,10.1 0,20.2 0,30.4 C43.0375,62.2 43.1375,63.1 43.9375,64 zM83.6375,63.6 c-0.30000000000000027,5 -1.5,9.6 -3.6,14.1 c-2.8,5.8 -6.7,10.5 -12,14.4 l-21,-28.5 H83.6375 z" id="svg_53"/>
	<path fill="#929497" d="M36.4375,62.9 c-0.9,0 -1.9,0 -2.7,0 c-2.4,0.2 -4.2,1.9 -4.7,4.1 c-0.1,0.7000000000000005 -0.2,1.5 -0.2,2.2 c0,0.30000000000000027 0,0.6000000000000005 0,1 l0,0.4 l0,0 l0,0.30000000000000027 c0,0.4 0,0.9 0,1.3 c0,2.9 1.9,5.1 4.7,5.5 c0.5,0.1 1,0.1 1.6,0.1 c0.8,0 1.6,-0.1 2.3,-0.2 c2.3,-0.4 3.8,-1.9 4,-4.1 c0.30000000000000027,-2 0.30000000000000027,-4.1 0.1,-6 C41.2375,64.8 39.2375,63.1 36.4375,62.9 zM38.9375,71 c0,0.5 0,1.1 0,1.6 c-0.1,1.3 -1.1,2.3 -2.4,2.4 c-0.5,0 -0.9,0.1 -1.4,0.1 c-0.4,0 -0.9,0 -1.3,-0.1 c-1.3,-0.1 -2.2,-1 -2.3,-2.2 c-0.1,-1.7000000000000002 -0.1,-3.3 0,-5 c0.1,-1.2 1.2,-2.2 2.5,-2.2 c0.4,0 0.7000000000000005,0 1.1,0 c0.4,0 0.8,0 1.2,0 c1.4,0 2.5,1.1 2.6,2.5 c0,0.5 0,1 0,1.5 c0,0.1 0,0.2 0,0.4 l0,0.4 C38.9375,70.5 38.9375,70.8 38.9375,71 z" id="svg_55"/>
	<path fill="#929497" d="M18.8375,63.5 c0.4,0 0.9,0 1.3,0 c2.8,-0.1 5,-2.1 5.2,-4.8 c0.1,-1.6 0.1,-3.3 0,-5.1 c-0.2,-2.8 -2.4,-4.9 -5.2,-4.9 c-0.7000000000000005,0 -1.5,0 -2.2,0 c-2.4,0 -4.5,1.6 -5,3.9 c-0.2,0.8 -0.2,1.6 -0.30000000000000027,2.4 c0,0.4 0,0.7000000000000005 -0.1,1.1 l0,0.4 l0.1,0 l0,0.4 c0,0.5 0,1.1 0,1.6 c0.1,2.8 2.3,5.1 5.1,5.2 C18.1375,63.5 18.4375,63.5 18.8375,63.5 zM22.7375,56.7 c0,0.4 0,0.9 0,1.3 c0,1.5 -0.9,2.5 -2.2,2.7 c-1,0.1 -2,0.2 -2.9,0 c-1.4,-0.2 -2.3,-1.2 -2.3,-2.7 c0,-1.3 0,-2.7 0,-4.1 c0,-1.4 0.9,-2.4 2.2,-2.6 c0.5,-0.1 1.1,-0.1 1.6,-0.1 c0.5,0 1.1,0 1.6,0.1 c1.3,0.2 2.1,1.3 2.1,2.7 c0,0.5 0,0.9 0,1.4 l0,0.6000000000000005 L22.7375,56.7 z" id="svg_57"/>
	<polygon fill="#929497" points="36.537498474121094,49.400001525878906 34.23749923706055,48 15.637499809265137,77 17.9375,78.4000015258789 36.337501525878906,49.70000076293945 " id="svg_59"/>
</g></g></svg>