<?xml version="1.0" encoding="utf-8"?>
<!-- Generator: Adobe Illustrator 18.0.0, SVG Export Plug-In . SVG Version: 6.00 Build 0)  -->
<!DOCTYPE svg PUBLIC "-//W3C//DTD SVG 1.1//EN" "http://www.w3.org/Graphics/SVG/1.1/DTD/svg11.dtd">
<svg version="1.1" id="Isolation_Mode" xmlns="http://www.w3.org/2000/svg" xmlns:xlink="http://www.w3.org/1999/xlink" x="0px"
	 y="0px" viewBox="0 0 164.3 52" enable-background="new 0 0 164.3 52" xml:space="preserve">
<g>
	<g>
		<path fill="#fff" d="M30.1,50.4l2.7-4.8h9.4l1.1,4.8h4.6l-5-22.7h-4.8L25.2,50.4C25.2,50.4,30.1,50.4,30.1,50.4z M35.1,41.4l4.5-8.1l1.8,8.1
			H35.1z"/>
		<path d="M52.1,33.3l-3.5,17.2h4l1.8-8.7c0.4-1.8,0.9-3.2,1.7-4c0.8-0.9,1.8-1.3,3.1-1.3c0.9,0,1.6,0.2,2,0.7
			c0.5,0.5,0.7,1.2,0.7,2.1c0,0.3,0,0.7-0.1,1c0,0.3-0.1,0.7-0.2,1.1l-1.8,9.1h4.2l1.5-7.8c0.2-0.9,0.3-1.8,0.4-2.5
			c0.1-0.7,0.2-1.2,0.2-1.6c0-1.9-0.5-3.3-1.6-4.2c-1.1-0.9-2.6-1.4-4.7-1.4c-0.8,0-1.6,0.2-2.4,0.5c-0.7,0.3-1.5,0.8-2.1,1.5
			l0.4-1.6C55.6,33.3,52.1,33.3,52.1,33.3z"/>
		<path d="M83.7,50.4l4.4-22.7h-4.1l-1.5,7.8c-0.7-0.9-1.6-1.5-2.6-1.9c-1-0.4-2-0.7-3.2-0.7c-1.5,0-2.9,0.3-4.2,1
			c-1.3,0.6-2.4,1.6-3.2,2.8c-0.7,0.9-1.1,1.8-1.5,2.8c-0.3,1-0.5,2-0.5,3c0,2.5,0.7,4.6,2.2,6.1s3.4,2.3,5.8,2.3
			c0.9,0,1.7-0.1,2.4-0.4c0.7-0.3,1.4-0.7,2-1.2l-0.2,1.2L83.7,50.4L83.7,50.4z M80.2,37.8c0.8,0.9,1.3,2,1.3,3.3
			c0,1.7-0.5,3.1-1.6,4.2c-1.1,1.1-2.4,1.7-3.9,1.7c-1.4,0-2.5-0.4-3.3-1.3c-0.8-0.9-1.2-2-1.2-3.4c0-1.6,0.6-3,1.6-4.2
			c1.1-1.1,2.4-1.7,3.9-1.7C78.3,36.5,79.3,36.9,80.2,37.8z"/>
		<path d="M93.3,37.5c0.8-0.6,1.8-0.9,2.9-0.9c1.2,0,2.2,0.3,3,0.9c0.8,0.6,1.4,1.4,1.6,2.5h-9.4C91.8,38.9,92.5,38.1,93.3,37.5z
			 M99.7,45c-0.6,0.7-1.2,1.2-1.9,1.6c-0.7,0.3-1.5,0.5-2.4,0.5c-1.2,0-2.2-0.3-2.9-1c-0.7-0.7-1.3-1.6-1.5-2.9h13.7
			c0.1-0.4,0.1-0.9,0.2-1.2c0-0.4,0.1-0.7,0.1-1c0-2.4-0.8-4.4-2.4-6c-1.6-1.6-3.6-2.3-6-2.3c-1.2,0-2.3,0.2-3.4,0.6
			c-1.1,0.4-2,1-2.8,1.7c-1.1,1-1.9,2.1-2.5,3.4c-0.6,1.3-0.9,2.7-0.9,4.1c0,2.4,0.8,4.4,2.4,6c1.6,1.6,3.6,2.3,6,2.3
			c2.1,0,3.9-0.5,5.4-1.5c1.5-1,2.7-2.4,3.4-4.3H99.7z"/>
		<path d="M109.2,50.4l1.7-8.7c0.4-1.9,1-3.2,1.9-3.9c0.9-0.7,2.2-1.1,4.1-1.1l0.8-4h-0.1c-1.3,0-2.4,0.2-3.4,0.7
			c-1,0.5-1.8,1.1-2.5,2.1l0.5-2.3h-3.7L105,50.4L109.2,50.4L109.2,50.4z"/>
		<path d="M116,45.1c0,0.1,0,0.2,0,0.3c0,1.7,0.5,3,1.6,4s2.6,1.5,4.5,1.5c1.7,0,3.2-0.6,4.3-1.6c1.1-1.1,1.7-2.5,1.7-4.1
			c0-1-0.3-1.8-0.8-2.5c-0.5-0.7-1.5-1.5-2.9-2.4c-0.1-0.1-0.3-0.2-0.5-0.3c-1.4-0.8-2-1.6-2-2.1c0-0.4,0.2-0.7,0.5-1
			c0.3-0.3,0.7-0.4,1.1-0.4c0.5,0,0.8,0.2,1.1,0.5c0.2,0.3,0.4,0.8,0.4,1.5h4.1V38c0-1.5-0.5-2.8-1.5-3.7c-1-1-2.3-1.4-3.9-1.4
			c-1.7,0-3.1,0.5-4.2,1.6c-1.1,1-1.7,2.3-1.7,3.8c0,0.6,0.1,1.1,0.3,1.6c0.2,0.5,0.5,1,0.9,1.5c0.2,0.2,0.8,0.7,1.9,1.3
			c0.6,0.3,1,0.6,1.3,0.8c0.6,0.4,1.1,0.7,1.3,1.1c0.2,0.3,0.4,0.7,0.4,1.1c0,0.5-0.2,0.9-0.5,1.2c-0.3,0.3-0.7,0.5-1.2,0.5
			c-0.6,0-1.1-0.2-1.5-0.6c-0.3-0.4-0.5-1-0.5-1.7v-0.1H116C116,44.9,116,45,116,45.1z"/>
		<path d="M135.9,37.5c0.8-0.6,1.8-0.9,2.9-0.9c1.2,0,2.2,0.3,3,0.9c0.8,0.6,1.4,1.4,1.6,2.5H134C134.4,38.9,135,38.1,135.9,37.5z
			 M142.3,45c-0.6,0.7-1.2,1.2-1.9,1.6c-0.7,0.3-1.5,0.5-2.4,0.5c-1.2,0-2.2-0.3-2.9-1c-0.7-0.7-1.3-1.6-1.5-2.9h13.7
			c0.1-0.4,0.1-0.9,0.2-1.2c0-0.4,0.1-0.7,0.1-1c0-2.4-0.8-4.4-2.4-6c-1.6-1.6-3.6-2.3-6-2.3c-1.2,0-2.3,0.2-3.4,0.6
			c-1.1,0.4-2,1-2.8,1.7c-1.1,1-1.9,2.1-2.5,3.4c-0.6,1.3-0.9,2.7-0.9,4.1c0,2.4,0.8,4.4,2.4,6c1.6,1.6,3.6,2.3,6,2.3
			c2.1,0,3.9-0.5,5.4-1.5c1.5-1,2.7-2.4,3.4-4.3H142.3z"/>
		<path d="M150.3,33.3l-3.5,17.2h4l1.8-8.7c0.4-1.8,0.9-3.2,1.7-4c0.8-0.9,1.8-1.3,3.1-1.3c0.9,0,1.6,0.2,2,0.7
			c0.5,0.5,0.7,1.2,0.7,2.1c0,0.3,0,0.7-0.1,1c0,0.3-0.1,0.7-0.2,1.1l-1.8,9.1h4.2l1.5-7.8c0.2-0.9,0.3-1.8,0.4-2.5
			c0.1-0.7,0.2-1.2,0.2-1.6c0-1.9-0.5-3.3-1.6-4.2c-1.1-0.9-2.6-1.4-4.7-1.4c-0.8,0-1.6,0.2-2.4,0.5c-0.7,0.3-1.5,0.8-2.1,1.5
			l0.4-1.6C153.9,33.3,150.3,33.3,150.3,33.3z"/>
	</g>
	<path fill="#FEDA00" d="M57.4,20.4c0.5-2.8,2-7.4,6.1-12c-6.6-0.5-10.5,5.2-11.9,7.7c-0.3-2.8-0.2-7.6,2.6-13.3
		c-6.5,1.3-8.7,7.9-9.4,10.7c-1-2.6-2.2-7.3-1.1-13.5c-5.9,3-6.2,10-6.1,12.9c-1.7-2.2-4.2-6.4-4.8-12.6c-4.8,4.6-3.2,11.3-2.3,14.1
		c-2.3-1.7-5.7-5-8.1-10.8c-3.4,5.7,0,11.8,1.6,14.2c-2.6-1-6.9-3.2-10.7-8.2c-1.7,6.4,3.2,11.3,5.4,13.2c-2.8-0.2-7.5-1.2-12.5-4.9
		c0.2,6.6,6.2,10,8.8,11.2c-2.7,0.6-7.5,1-13.4-1.2c2,6.4,8.7,7.9,11.5,8.3c-2.5,1.3-7,3-13.2,2.5c3.6,5.5,10.5,5.2,13.4,4.7
		c-2,2-5.9,4.8-12,6.1c6.4,5.5,15.3,0.2,15.3,0.2s0,0,0,0c0,0.1,0.1,0.1,0.1,0.2c-1.1-2.8-1.7-5.9-1.7-9c0-13.7,11-24.7,24.6-24.7
		c8.9,0,16.7,5,21,12.3l0.2,0.3c0,0,1.8-7.1,10.2-12.3C64.8,14,59.4,18.4,57.4,20.4z"/>
</g>
</svg>
